<?xml version="1.0" encoding="UTF-8" standalone="no"?>
<svg
   xmlns:dc="http://purl.org/dc/elements/1.1/"
   xmlns:cc="http://creativecommons.org/ns#"
   xmlns:rdf="http://www.w3.org/1999/02/22-rdf-syntax-ns#"
   xmlns:svg="http://www.w3.org/2000/svg"
   xmlns="http://www.w3.org/2000/svg"
   id="svg8"
   version="1.1"
   viewBox="0 0 551.25238 166.18347"
   height="166.18347mm"
   width="551.25238mm">
  <defs
     id="defs2" />
  <metadata
     id="metadata5">
    <rdf:RDF>
      <cc:Work
         rdf:about="">
        <dc:format>image/svg+xml</dc:format>
        <dc:type
           rdf:resource="http://purl.org/dc/dcmitype/StillImage" />
        <dc:title></dc:title>
      </cc:Work>
    </rdf:RDF>
  </metadata>
  <g
     transform="translate(-1.7267918,0.46725675)"
     id="layer1">
    <path
       style="stroke-width:0.26458332"
       d="m 97.013233,11.613353 c -5.28541,-9.8155098 -14.04391,-9.8155098 -19.32891,0 L 3.9171225,147.89732 c -5.3607,9.81551 -0.5286,17.81889 10.6461005,17.81889 H 160.20942 c 11.1744,0 15.9314,-8.00338 10.6461,-17.81889 L 97.012933,11.613353 Z M 228.01152,153.40912 c -5.2853,9.81551 -13.9681,9.81551 -19.2534,0 L 135.14232,17.351633 c -5.2853,-9.8155098 -0.5287,-17.81888975 10.5703,-17.81888975 h 145.42005 c 11.09928,0 15.93136,8.00337995 10.57037,17.81888975 z M 543.84336,72.922343 c 9.58903,5.51153 9.58903,14.49678 0,20.00832 L 425.98233,160.65738 c -9.51362,5.43639 -17.36592,0.98134 -17.36592,-10.04173 V 15.313023 c 0,-11.0235998 7.8523,-15.55379975 17.36592,-10.1173998 z M 380.30255,146.16059 c 0,10.79685 -8.83417,19.55536 -19.55535,19.55536 h -17.51701 c -10.79685,0 -19.55535,-8.83418 -19.55535,-19.55536 V 19.238913 c 0,-10.7968598 8.83417,-19.63102975 19.55535,-19.63102975 h 17.51701 c 10.72171,0 19.55535,8.83416995 19.55535,19.63102975 z m 155.08393,9.58877 c 0,-5.13398 3.77508,-8.98472 8.83418,-8.98472 5.13397,0 8.7585,3.69967 8.7585,8.90931 0,5.13398 -3.69967,8.98472 -8.83418,8.98472 -5.1345,0 -8.7585,-3.77507 -8.7585,-8.90931 z m 16.00729,-0.0751 c 0,-4.30398 -3.09562,-7.55042 -7.24852,-7.55042 -4.30395,0 -7.17285,3.09563 -7.17285,7.47475 0,4.30397 3.09562,7.55041 7.24852,7.55041 4.30398,0.0757 7.17285,-3.02022 7.17285,-7.47474 z m -5.66287,3.92589 -2.03862,-2.64266 h -1.05698 v 2.41617 c 0,0.60378 -0.30192,0.9062 -0.83055,0.9062 h -0.30189 c -0.52864,0 -0.83053,-0.45297 -0.83053,-1.13268 v -7.02178 c 0,-0.75512 0.37756,-1.13268 1.05701,-1.13268 h 2.79373 c 2.41618,0 3.69967,0.98134 3.69967,2.94455 0,1.50998 -0.90619,2.49158 -2.49155,2.79373 l 2.34074,2.86888 c 0.0757,0.15108 -0.45297,0.75512 -1.13268,0.75512 -0.30189,0 -0.8305,-0.22648 -1.20806,-0.75512 z m -3.0956,-4.22831 h 1.88751 c 1.13268,0 1.73646,-0.52864 1.73646,-1.3589 0,-0.98134 -0.60378,-1.3589 -1.81213,-1.3589 h -1.81213 v 2.71833 z"
       id="path3708" />
  </g>
</svg>
