<?xml version="1.0" standalone="no"?>
<!DOCTYPE svg PUBLIC "-//W3C//DTD SVG 20010904//EN"
 "http://www.w3.org/TR/2001/REC-SVG-20010904/DTD/svg10.dtd">
<svg version="1.0" xmlns="http://www.w3.org/2000/svg"
 width="126.000000pt" height="79.000000pt" viewBox="0 0 126.000000 79.000000"
 preserveAspectRatio="xMidYMid meet">

<g transform="translate(0.000000,79.000000) scale(0.100000,-0.100000)"
fill="#000000" stroke="none">
<path d="M167 734 c-40 -57 -86 -169 -86 -211 -1 -18 -17 -76 -36 -130 -42
-118 -43 -137 -9 -159 24 -17 29 -16 94 5 50 16 77 31 99 56 40 45 53 45 49
-2 -5 -55 20 -53 99 6 37 28 68 49 71 47 12 -13 -63 -123 -138 -202 -49 -51
-93 -102 -100 -113 -9 -18 -8 -21 11 -21 35 0 85 37 137 103 54 67 155 167
170 167 5 0 33 22 63 50 46 42 79 62 79 46 0 -2 -13 -30 -30 -61 -16 -31 -30
-63 -30 -71 0 -29 40 -12 109 46 40 33 76 60 82 60 5 0 19 -16 30 -35 29 -48
53 -45 131 14 36 28 68 47 72 44 16 -16 2 -49 -34 -80 -39 -34 -50 -53 -30
-53 5 0 26 15 46 32 l37 33 15 -23 c22 -34 70 -29 118 12 44 38 41 56 -5 31
-24 -12 -36 -13 -51 -5 -11 6 -20 14 -20 19 0 4 22 27 50 50 27 23 61 57 75
76 23 29 25 36 13 54 -7 12 -20 21 -30 21 -23 0 -77 -50 -60 -57 6 -2 12 -10
12 -17 0 -14 -55 -76 -68 -76 -14 0 -22 26 -22 70 0 21 -5 42 -11 45 -18 12
-48 -25 -51 -64 -3 -31 -10 -41 -52 -68 -26 -18 -52 -33 -57 -33 -4 0 -13 18
-19 41 -6 22 -18 43 -26 46 -22 8 -68 -15 -105 -53 -47 -49 -54 -42 -19 19 32
56 37 82 19 92 -22 14 -58 -8 -153 -95 -55 -49 -103 -90 -108 -90 -5 0 7 29
27 63 66 119 39 128 -85 27 -47 -37 -86 -65 -88 -60 -2 4 4 25 12 45 35 82 15
84 -85 9 -81 -61 -125 -84 -163 -84 -44 0 -43 9 16 165 17 44 36 96 44 115 7
19 25 66 39 103 15 38 24 75 21 83 -10 26 -36 14 -69 -32z"/>
</g>
</svg>
