<?xml version="1.0" standalone="no"?>
<!DOCTYPE svg PUBLIC "-//W3C//DTD SVG 20010904//EN"
 "http://www.w3.org/TR/2001/REC-SVG-20010904/DTD/svg10.dtd">
<svg version="1.0" xmlns="http://www.w3.org/2000/svg"
 width="1000.000000pt" height="1000.000000pt" viewBox="0 0 1000.000000 1000.000000"
 preserveAspectRatio="xMidYMid meet">

<g transform="translate(0.000000,1000.000000) scale(0.100000,-0.100000)"
fill="#000000" stroke="none">
<path d="M4770 9393 c-36 -2 -137 -10 -225 -19 -1234 -121 -2384 -772 -3125
-1769 -443 -596 -737 -1304 -839 -2020 -59 -420 -61 -846 -5 -1265 24 -180
108 -569 141 -657 6 -15 -27 -24 -112 -32 l-71 -6 274 -620 c150 -341 276
-623 280 -626 4 -4 48 4 98 17 50 12 96 24 103 26 7 2 49 -46 94 -107 629
-861 1524 -1462 2551 -1715 797 -196 1653 -165 2431 87 915 296 1696 867 2263
1654 l63 87 47 -14 c26 -8 73 -21 105 -28 l58 -14 15 32 c8 17 133 299 277
626 l263 595 -71 6 c-95 8 -118 16 -110 37 20 47 96 376 119 512 189 1127 -48
2261 -671 3209 -332 506 -777 949 -1289 1284 -785 514 -1713 765 -2664 720z
m690 -488 c611 -75 1176 -277 1680 -599 989 -632 1654 -1666 1814 -2821 52
-381 45 -868 -19 -1225 -21 -112 -62 -302 -81 -367 l-15 -53 -62 42 c-354 238
-822 799 -1177 1413 -35 61 -117 217 -182 347 -64 130 -152 296 -194 370 -289
504 -659 912 -1054 1163 -720 457 -1630 457 -2350 0 -322 -205 -624 -509 -883
-891 -125 -184 -223 -356 -365 -642 -65 -130 -147 -286 -182 -347 -354 -611
-831 -1185 -1173 -1410 -48 -32 -60 -36 -67 -24 -27 43 -98 402 -127 639 -24
205 -24 667 1 875 94 788 390 1490 881 2092 103 126 351 381 480 492 650 562
1466 899 2335 965 121 9 619 -4 740 -19z m-357 -2850 c257 -54 569 -339 886
-810 138 -205 232 -361 388 -649 288 -529 520 -857 855 -1212 254 -268 627
-560 912 -714 53 -28 96 -55 96 -60 0 -13 -80 -118 -191 -251 -519 -619 -1254
-1085 -2034 -1288 -377 -99 -718 -137 -1120 -128 -847 21 -1634 296 -2310 806
-208 157 -452 388 -629 596 -109 127 -206 253 -206 266 0 4 43 31 96 59 285
154 658 446 912 714 335 355 567 683 855 1212 298 548 532 889 782 1140 129
131 229 207 343 264 132 66 238 82 365 55z"/>
</g>
</svg>
