<?xml version="1.0" encoding="UTF-8" standalone="no"?>
<svg
   xmlns:dc="http://purl.org/dc/elements/1.1/"
   xmlns:cc="http://creativecommons.org/ns#"
   xmlns:rdf="http://www.w3.org/1999/02/22-rdf-syntax-ns#"
   xmlns:svg="http://www.w3.org/2000/svg"
   xmlns="http://www.w3.org/2000/svg"
   xmlns:sodipodi="http://sodipodi.sourceforge.net/DTD/sodipodi-0.dtd"
   xmlns:inkscape="http://www.inkscape.org/namespaces/inkscape"
   width="300"
   height="110"
   viewBox="0 0 1843 671"
   version="1.0"
   id="svg2"
   sodipodi:version="0.32"
   inkscape:version="0.46"
   sodipodi:docname="Takamine Logo.svg"
   inkscape:output_extension="org.inkscape.output.svg.inkscape">
  <metadata
     id="metadata27">
    <rdf:RDF>
      <cc:Work
         rdf:about="">
        <dc:format>image/svg+xml</dc:format>
        <dc:type
           rdf:resource="http://purl.org/dc/dcmitype/StillImage" />
      </cc:Work>
    </rdf:RDF>
  </metadata>
  <defs
     id="defs25">
    <inkscape:perspective
       sodipodi:type="inkscape:persp3d"
       inkscape:vp_x="0 : 419.375 : 1"
       inkscape:vp_y="0 : 1000 : 0"
       inkscape:vp_z="2303.75 : 419.375 : 1"
       inkscape:persp3d-origin="1151.875 : 279.58333 : 1"
       id="perspective29" />
  </defs>
  <sodipodi:namedview
     inkscape:window-height="669"
     inkscape:window-width="640"
     inkscape:pageshadow="2"
     inkscape:pageopacity="0.0"
     guidetolerance="10.0"
     gridtolerance="10.0"
     objecttolerance="10.0"
     borderopacity="1.0"
     bordercolor="#666666"
     pagecolor="#ffffff"
     id="base"
     showgrid="false"
     inkscape:zoom="0.23613673"
     inkscape:cx="1151.875"
     inkscape:cy="419.375"
     inkscape:window-x="92"
     inkscape:window-y="95"
     inkscape:current-layer="svg2" />
  <g
     id="#fdfdfdff" />
  <g
     id="#000000ff">
    <path
       d="M 232.54,0 L 263.48,0 C 293.59,0.99 323.71,5.72 352.14,15.87 C 391.08,29.52 426.44,51.19 461.73,72.19 C 486.93,87.02 510.56,104.32 535.8,119.07 C 539.01,121.54 542.56,118.93 545.75,117.83 C 567.3,109.77 589.55,103.36 612.34,99.95 C 625.16,98.2 638.05,96.79 651,96.54 C 666.32,96.11 682.43,98.18 695.62,106.53 C 704.74,112.01 711.46,121.54 712.77,132.18 C 714.26,146.45 710.01,161.52 700.19,172.15 C 690.99,182.98 678.26,190.07 665.1,194.96 C 643.86,202.45 621.07,204.85 598.66,203.75 C 577.2,203.28 555.78,200.35 535.04,194.78 C 518.36,190.42 501.82,185.51 485.37,180.31 C 478.26,187.88 470.77,195.13 464.27,203.27 C 434.61,237.62 408.11,274.59 384.07,313.06 C 363.27,347.04 344.54,382.36 329.26,419.18 C 311.92,460.74 299.06,504.31 292.66,548.93 C 291.28,561.24 289.46,573.6 290.21,586.02 C 290.81,603.35 292.48,621.46 301.39,636.76 C 306.26,644.08 313.96,650.27 322.99,651.06 C 340.19,651.88 357.27,648.13 373.47,642.61 C 405.37,631.38 432.79,610.2 455.89,585.91 C 465.9,574.98 475.58,563.76 484.71,552.09 C 482.25,569.58 479.32,587.02 477.11,604.55 C 476.45,608.26 476.47,612.64 473.24,615.2 C 461.32,626.18 447.16,634.36 433.04,642.15 C 407.34,655.49 380.08,666.55 351.32,671 L 332.57,671 C 313.66,668.83 295.44,660.54 281.95,647.03 C 269.93,635.65 261.25,621.2 254.91,606.01 C 245.93,583.83 241.6,559.88 241.68,535.98 C 241.53,495.62 246.42,455.02 258.49,416.42 C 267.85,385.07 282.1,355.28 299.47,327.59 C 320.3,294.64 345.79,264.83 373.58,237.57 C 383.66,227.32 394.54,217.91 405.06,208.11 C 413.74,201.09 421.67,193.2 430.56,186.45 C 439.77,178.77 449.03,171.12 458.64,163.98 C 443.84,153.97 428.91,144.09 414.61,133.36 C 383.21,110.61 352.79,86.33 319.14,66.9 C 310.84,61.66 301.96,57.44 293.46,52.54 C 276.03,41.67 259.47,29.31 241.04,20.11 C 224.32,11.99 205.7,7.72 187.09,8.34 C 164.27,9.22 141.63,18.16 125.02,33.95 C 117.07,41.62 110,50.47 105.77,60.76 C 99.17,74.42 97.45,90.06 99.04,105.03 C 100.83,121.52 107.76,136.9 116.02,151.1 C 127.65,170.8 141.55,190.11 145.83,213.07 C 148.48,226.85 148.84,241.88 142.72,254.85 C 135.23,271.4 120.25,283.71 103.59,290.34 C 94.38,294.16 84.49,295.72 74.65,296.89 C 63.49,298.89 52.1,297.73 40.94,296.29 C 26.83,294.3 13.71,285.7 6.66,273.26 C 3.06,267.51 1.38,260.87 0,254.3 L 0,240.57 C 1.53,227.83 4.76,214.49 13.74,204.84 C 23.57,200.44 34.38,198.62 44.89,196.49 C 43.05,201.7 39.55,206.08 37.15,211.03 C 31.75,220.42 26.87,230.39 25.52,241.26 C 24.13,250.41 24.18,260.19 28.44,268.63 C 34.3,281.07 47.13,289.95 60.91,290.68 C 72.45,291.72 84.17,286.31 91.18,277.15 C 100.34,266.17 104.17,251.84 105.84,237.9 C 107.73,224.47 105.22,210.93 102.01,197.9 C 98.42,182.33 93.15,167.22 88.92,151.83 C 83.83,133.58 79.85,114.9 78.69,95.94 C 78.07,83.12 78.36,69.78 83.51,57.8 C 86.97,49.22 92.62,41.63 99.42,35.41 C 114.6,21.43 134.47,14.06 154.16,9.04 C 179.84,3.01 206.24,0.91 232.54,0 M 633.3,110.56 C 618.1,113.04 603.07,116.88 588.87,122.9 C 579.67,126.34 571.15,131.28 562.31,135.5 C 577.43,140.77 591.76,147.97 606.39,154.42 C 615.78,158.4 625.58,161.5 635.68,163.02 C 648.36,164.64 661.45,163.57 673.59,159.51 C 681.73,156.54 690.28,152.1 694.4,144.06 C 698.89,135.79 696.55,124.73 689.51,118.62 C 683.75,113.88 676.68,111.02 669.37,109.71 C 657.44,107.13 645.22,109.05 633.3,110.56 z"
       id="path6"
       style="opacity:1;fill:#000000" />
    <path
       d="M 812.2,100.59 C 830.95,98.6 849.77,101.13 868.52,101.88 C 872.73,101.61 875.49,105.26 879.15,106.7 C 881.5,107.45 881.94,109.97 882.33,112.09 C 881.38,119.15 879.06,125.94 876.73,132.65 C 865.63,164.21 847.56,192.59 830.55,221.19 C 830.89,221.53 831.56,222.21 831.89,222.55 C 839.03,220.81 845.51,217.15 851.95,213.72 C 867.88,205.4 883.42,196.28 899.71,188.65 C 905.59,186.31 911.62,182.69 918.19,183.89 C 918.06,187.25 918.33,190.72 917.16,193.94 C 912.99,206.29 906.21,217.5 899.7,228.71 C 888.58,247.46 876.65,265.73 865.63,284.54 C 863.09,288.59 859.28,291.58 856.15,295.14 C 841.71,309.39 822.28,316.44 803.98,324.25 C 796.61,327.52 789.32,331.1 782.69,335.71 C 782.62,335.94 782.49,336.41 782.43,336.64 C 792.5,345.86 801.93,355.75 811.42,365.57 C 823.63,379.05 835.41,392.91 847.25,406.72 C 865.59,428.62 883.88,450.69 904.64,470.38 C 922.44,486.91 942.18,501.87 964.74,511.27 C 990.47,522.33 1019.1,526.37 1046.91,523.2 C 1059.53,521.38 1071.84,516.77 1082.2,509.27 C 1097.84,498.1 1109.78,482.78 1124.37,470.41 C 1125.38,469.56 1126.43,468.39 1127.93,468.6 C 1139.3,468.41 1150.66,467.42 1162.04,467.4 C 1161.43,470.27 1158.95,472.05 1157.06,474.07 C 1143.42,489.21 1128.12,503.09 1110.57,513.56 C 1092.47,524.63 1072.11,532.18 1051.04,534.93 C 1035.46,537.35 1019.6,537.11 1003.91,536.13 C 974.81,534.15 946.02,526.94 919.6,514.54 C 892.63,502.03 868.4,484.34 846.19,464.71 C 831.17,451.14 816.57,437.08 802.78,422.25 C 784.95,403.36 767.48,384.13 749.92,364.98 C 737.65,375.44 727.55,389.08 723.75,404.96 C 722.83,410.35 721.23,415.76 721.57,421.28 C 717.77,423 713.44,423.02 709.55,424.56 C 701.97,427.38 694.23,430.64 685.97,430.24 C 680.93,430.11 676.63,427.11 671.79,426.12 C 672,420.09 671.31,413.99 672.37,408.01 C 673.87,398.5 675.79,389.06 677.64,379.61 C 679.78,370.37 683.21,361.5 686.7,352.7 C 688.22,345.35 681.34,339 682.76,331.64 C 687.98,323.77 700.67,325.73 705.05,316.94 C 722.98,286.82 744.27,258.93 763.78,229.86 C 774.41,214.36 784.67,198.6 794.34,182.47 C 804.82,165.16 818.5,149 823.14,128.84 C 823.74,126.31 824.3,123.7 824.07,121.08 C 820.75,113.89 814.87,108.09 812.2,100.59 M 826.2,261.25 C 822.06,265.1 817.69,268.71 813.49,272.49 C 807.75,278.07 801.2,282.85 796.2,289.16 C 791.78,295.97 791.01,304.28 790.14,312.14 C 802.99,309.61 812.87,300.17 824.09,294.06 C 824.78,287.31 826.56,280.74 827.94,274.11 C 829.64,268.02 830.68,261.68 833.33,255.89 C 830.51,257.03 828.49,259.36 826.2,261.25 z"
       id="path8"
       style="opacity:1;fill:#000000" />
    <path
       d="M 1506.44,164.6 C 1510.63,162.65 1514.83,160 1519.61,160.07 C 1527.24,180.05 1537.04,199.55 1551.38,215.61 C 1554.02,219.16 1557.72,221.87 1560.08,225.62 C 1556.24,226.85 1552.49,228.39 1548.53,229.14 C 1528.76,231.27 1508.44,224.5 1493.42,211.58 C 1489.1,208.2 1485.35,203.99 1482.89,199.07 C 1481.18,194.34 1483.12,189.31 1485.38,185.13 C 1490.25,176.48 1497.68,169.26 1506.44,164.6 z"
       id="path10"
       style="opacity:1;fill:#000000" />
    <path
       d="M 584.03,252.32 C 598.96,247.99 614.49,245.37 630.07,245.75 C 633.42,245.89 636.44,247.86 638.29,250.6 C 642.81,256.72 643.37,264.64 643.5,271.99 C 643.54,287.96 643.48,303.94 643.55,319.91 C 638.55,318.96 632.72,317.97 629.64,313.44 C 626.31,308.69 622.51,304.27 619.65,299.2 C 614.86,291.85 610.85,283.69 603.88,278.1 C 599.87,274.52 594.19,273.49 588.97,273.85 C 570.45,276.32 552.89,286.88 543.17,303.03 C 535.57,316.31 532.68,331.83 532.67,347.02 C 533.09,358.63 533,370.26 533.58,381.87 C 549.7,373.97 565.09,364.39 578.67,352.6 C 584.5,347.79 590.45,343.1 595.76,337.71 C 597.81,335.58 600.04,333.61 602.49,331.95 C 602.99,351.38 599.76,371.42 605.76,390.31 C 607.9,393.31 611.66,394.83 615.03,396.13 C 620.43,397.61 626.1,396.74 631.63,397.18 C 628.82,402.03 627.31,407.52 624.37,412.31 C 618.93,422.13 611.09,431.16 600.67,435.8 C 592.8,438.7 583.48,440.14 575.73,436.17 C 566.33,430.22 563.05,418.88 559.4,409.03 C 557.44,403.76 555.62,398.41 553.01,393.42 C 533.54,400.92 517.36,414.4 499.24,424.4 C 494.62,427.46 488.93,425.85 483.77,426.47 C 480.19,418.28 475.62,410.12 475.33,400.98 C 474.62,379.28 478.94,357.45 487.61,337.56 C 491.72,329.18 495.62,320.62 501.18,313.08 C 520.81,284.19 550.6,262.38 584.03,252.32 z"
       id="path12"
       style="opacity:1;fill:#000000" />
    <path
       d="M 953.5,271.43 C 978.61,254.59 1008.85,245.54 1039.06,245.7 C 1043.96,245.64 1048.28,249.18 1050.21,253.54 C 1054.25,262.81 1053.43,273.13 1053.47,283 C 1053.48,295.25 1053.45,307.5 1053.5,319.76 C 1050.16,319.43 1046.77,318.85 1043.92,316.99 C 1040.15,315.17 1038.22,311.3 1035.73,308.16 C 1028.98,299.18 1024.34,288.69 1016.61,280.45 C 1011.79,275.53 1004.81,272.78 997.93,274 C 981.72,276.51 966.05,284.99 956.4,298.46 C 945.88,312.58 942.83,330.77 942.7,348 C 943.17,359.28 943.06,370.58 943.6,381.87 C 966.56,371.16 986.84,355.5 1005.17,338.19 C 1007.57,336.14 1009.62,333.6 1012.47,332.14 C 1012.96,351.5 1009.72,371.46 1015.81,390.27 C 1017.18,392.84 1020.28,393.92 1022.7,395.35 C 1028.54,397.64 1034.88,396.79 1040.99,397.2 C 1036.73,410.3 1029.39,422.83 1018.37,431.35 C 1012,436.26 1003.9,438.32 995.97,438.54 C 989.61,438.69 983.24,435.64 979.54,430.42 C 971.31,419.44 969.39,405.4 963.06,393.45 C 946.67,399.9 932.32,410.21 917.6,419.66 C 913.76,421.91 909.97,424.29 905.9,426.1 C 901.87,426.67 897.74,425.91 893.69,426.47 C 889.68,417.11 884.62,407.54 885.19,397.05 C 885.02,361.58 898.46,326.42 921.54,299.58 C 931.13,289.09 941.49,279.12 953.5,271.43 z"
       id="path14"
       style="opacity:1;fill:#000000" />
    <path
       d="M 1538.31,257.41 C 1549.32,256.6 1559.97,253.44 1570.98,252.54 C 1578.79,251.67 1587.41,252.24 1593.95,257.06 C 1598.09,261.15 1601.52,266.98 1600.54,273 C 1600.34,277.39 1599.94,281.77 1600.09,286.16 C 1608.7,281.58 1616.29,275.39 1624.83,270.69 C 1633.28,265.56 1643.06,262.48 1653,262.7 C 1658.46,262.63 1664.7,262.99 1668.64,267.32 C 1672.77,270.54 1672.71,276.28 1672.41,281.02 C 1671.83,295.5 1667.88,309.87 1660.66,322.47 C 1652.53,336.74 1641.9,349.38 1633.67,363.58 C 1627.87,373.99 1623.23,385.16 1621.22,396.95 C 1619.02,406.15 1619.27,415.65 1619.32,425.05 C 1619.5,426.59 1617.78,427.57 1616.44,427.48 C 1600.29,428.35 1584.13,427.21 1568,426.34 C 1567.4,412.22 1570.22,398.21 1573.78,384.61 C 1578.49,366.38 1587.5,349.55 1598.35,334.25 C 1604.25,325.93 1610.28,317.62 1614.59,308.31 C 1617.3,302.32 1620.56,295.97 1619.69,289.19 C 1611.13,288.89 1604.8,295.8 1598.72,300.87 C 1585.79,313.87 1574.97,328.82 1565.17,344.28 C 1553.1,363.01 1543.03,382.95 1534.06,403.33 C 1531.3,410.27 1528.13,417.08 1526.16,424.31 C 1520.32,426.28 1514.08,426.29 1508,426.27 C 1497.26,426.44 1486.51,425.82 1475.88,424.32 C 1476.93,421.06 1478.46,417.98 1479.96,414.92 C 1497.57,375.95 1514.23,336.53 1533.04,298.11 C 1537.04,290.82 1540.71,283.35 1544.97,276.19 C 1549.03,269.52 1544.33,261.08 1538.31,257.41 z"
       id="path16"
       style="opacity:1;fill:#000000" />
    <path
       d="M 1172.32,256.31 C 1181.86,255.29 1191.45,253.66 1201.08,254.47 C 1203.93,254.58 1207.18,255.82 1208.21,258.74 C 1210.9,265.29 1214.94,271.15 1218.98,276.94 C 1219.52,278.24 1221.16,277.69 1222,277.04 C 1231.19,271.08 1240.45,265.09 1250.5,260.65 C 1261.13,256.41 1272.51,253.75 1284,253.97 C 1292.21,253.88 1301.68,253.94 1308.01,260.01 C 1312.89,264.65 1313.8,271.63 1314.56,277.97 C 1322.39,270.38 1330.62,262.61 1341.03,258.75 C 1349.86,255.01 1359.59,254.65 1369.01,253.88 C 1374.76,253.42 1380.99,253.87 1385.89,257.2 C 1391.32,261.58 1392.6,269.12 1391.79,275.71 C 1388.65,297.31 1376.96,316.28 1365.13,334.16 C 1359.78,341.94 1354.69,349.89 1349.72,357.92 C 1344.31,366.89 1338.36,375.6 1333.98,385.13 C 1333.11,388.92 1331.37,393.56 1334.18,396.94 C 1336.07,400.15 1340.05,400.68 1343.28,401.84 C 1330.16,412.01 1315.77,421.32 1299.39,425.11 C 1291.42,427.15 1283.02,427.74 1274.9,426.32 C 1270.65,425.87 1267.46,422.23 1265.8,418.55 C 1263.74,409.16 1268.18,400.14 1271.67,391.67 C 1278.21,375.26 1285.83,359.22 1295.25,344.25 C 1302.69,331.99 1310.58,320.04 1317.72,307.6 C 1319.74,304 1322.23,300.43 1322.81,296.24 C 1322.42,294.13 1319.76,293.77 1318.05,294.22 C 1311.85,295.84 1306.17,299.11 1301.27,303.19 C 1286.54,315.23 1276.2,331.53 1266.69,347.77 C 1255.67,366.82 1246.77,386.98 1236.14,406.24 C 1234.13,409.41 1232.1,413.38 1228.05,414.14 C 1214.13,417.18 1200.28,420.75 1186.1,422.44 C 1182.06,422.97 1177.9,423.26 1173.9,422.37 C 1168.42,418.48 1171.34,411.17 1173.26,406.13 C 1180.48,384.6 1191.2,364.53 1201.39,344.32 C 1204.9,336.65 1209.06,329.3 1212.6,321.64 C 1216.52,314.13 1222.13,307.7 1226.54,300.5 C 1227.64,298.95 1227.88,297.06 1227.91,295.21 C 1223.23,293.73 1218.87,296.77 1215.07,299.1 C 1206.95,304.83 1199.14,311.18 1192.97,319.03 C 1174.34,342.83 1162,370.77 1144.02,395.02 C 1139.29,401.21 1134.25,407.31 1127.98,412.02 C 1123.86,415.23 1119.55,418.71 1114.13,419.15 C 1097.12,421.79 1079.52,425.65 1062.43,421.67 C 1062.51,419.59 1062.21,417.33 1063.5,415.54 C 1074.15,396.07 1085.74,377.14 1097.31,358.21 C 1107.16,341.68 1117.49,325.38 1126.02,308.1 C 1130.84,299.24 1134.55,289.85 1138.64,280.65 C 1140.01,277.29 1141.72,273.05 1139.32,269.75 C 1136.61,265.85 1133.01,262.58 1130.97,258.22 C 1144.78,258.97 1158.62,258.14 1172.32,256.31 z"
       id="path18"
       style="opacity:1;fill:#000000" />
    <path
       d="M 1796.99,254.61 C 1808,253.61 1819.34,252.99 1830.12,255.99 C 1835.95,257.87 1841.85,261.95 1843,268.39 L 1843,274.68 C 1842.11,288.23 1837.96,301.78 1829.77,312.75 C 1819.52,326.98 1804.34,336.82 1788.32,343.44 C 1767.83,351.7 1745.78,355.68 1723.76,356.56 C 1722.94,362.68 1721.04,368.73 1721.55,374.98 C 1722.04,386.43 1726.33,398.17 1734.7,406.22 C 1742.04,412.68 1752.33,413.75 1761.72,413.66 C 1771.28,413.13 1779.6,407.6 1788.95,406.08 C 1791.58,406.1 1795.15,405.73 1796.72,408.4 C 1798.28,410.73 1798.23,414.14 1796.11,416.13 C 1792.15,420.09 1787.14,422.8 1782.16,425.24 C 1771.32,430.05 1759.81,433.62 1747.95,434.55 C 1739.59,435.35 1731.17,434.8 1722.85,433.97 C 1710.92,432.11 1698.77,428.58 1689.2,420.94 C 1681.12,414.81 1675.37,405.82 1672.8,396.04 C 1670.1,386.61 1670.25,376.66 1670.96,366.96 C 1672.98,345.26 1681.58,324.27 1695.41,307.42 C 1720.01,276.65 1758.17,258.54 1796.99,254.61 M 1759.77,288.87 C 1746.84,302.13 1736.83,318.48 1731.8,336.35 C 1751.73,331.48 1771.69,322.23 1784.7,305.78 C 1789.57,299.25 1794.79,292.35 1795.67,283.97 C 1796.74,279.73 1795.04,275.47 1792.23,272.32 C 1779.47,272.46 1768.5,280.24 1759.77,288.87 z"
       id="path20"
       style="opacity:1;fill:#000000" />
    <path
       d="M 1440.63,262.15 C 1457.87,261.46 1475.12,261.04 1492.37,260.47 C 1495.68,269.24 1494.34,278.89 1493.15,287.95 C 1491.7,299.38 1487.21,310.11 1482.15,320.35 C 1468.61,345.58 1447.98,367.09 1439.84,395.05 C 1437.06,403.93 1435.87,413.28 1435.95,422.57 C 1415.9,423.98 1395.76,430.52 1375.61,426.49 C 1374.22,414.48 1374.18,402.09 1377.24,390.33 C 1379.31,381.46 1384.47,373.83 1389.24,366.22 C 1400.32,348.33 1415.49,333.4 1426.66,315.57 C 1433.35,305.21 1437.59,293.4 1439.75,281.29 C 1440.44,274.95 1441.73,268.51 1440.63,262.15 z"
       id="path22"
       style="opacity:1;fill:#000000" />
  </g>
</svg>
